<svg xmlns="http://www.w3.org/2000/svg" width="600" height="600" fill-rule="evenodd" clip-rule="evenodd" image-rendering="optimizeQuality" shape-rendering="geometricPrecision" text-rendering="geometricPrecision"><path fill="#010101" d="M373.5 367.5c3.989.384 7.655-.283 11-2h2c1.983.343 3.317-.324 4-2a199.402 199.402 0 0 1 31-.5 1908.943 1908.943 0 0 1 41 13.5l9.5-19c7.194-9.861 15.694-18.361 25.5-25.5 3.809-3.238 8.142-5.404 13-6.5a12.93 12.93 0 0 1 .5-5c7.994-11.224 10.494-23.558 7.5-37 2.789-8.43 2.623-16.763-.5-25-3.904-4.029-8.738-6.029-14.5-6a157.874 157.874 0 0 0-15 2 54.889 54.889 0 0 1-9.5 8l-1.5-1.5-15-1a6.802 6.802 0 0 1-3-1.5c-1.191-3.414-3.191-6.248-6-8.5-6.224-16.292-8.391-33.126-6.5-50.5 3.807-1.562 6.474-4.229 8-8a224.65 224.65 0 0 1 30.5-23c2.132-1.617 4.465-2.117 7-1.5a808.86 808.86 0 0 1 78.5 72.5 485.91 485.91 0 0 1 15 65 1205.87 1205.87 0 0 1 4 144 276.617 276.617 0 0 1-5 35l-3.5 5a461.62 461.62 0 0 1-64.5 24 429.258 429.258 0 0 0-24.5 2.5 167.464 167.464 0 0 1-27 11 457.031 457.031 0 0 1-40.5 3.5 264.567 264.567 0 0 0-31.5-1.5c-23.221 10.796-47.555 17.629-73 20.5-31.395 2.744-62.395.91-93-5.5a255.039 255.039 0 0 0-17-6 87.45 87.45 0 0 0-11-6c-4.841-7.66-10.507-14.493-17-20.5-14.655-5.662-27.822-13.662-39.5-24a74.685 74.685 0 0 1-7-13 289.86 289.86 0 0 1-16-22 2109.798 2109.798 0 0 0-30.5-54 378.469 378.469 0 0 0-9.5-21c-3.746-2.243-6.58-5.243-8.5-9a399.8 399.8 0 0 1-7.5-14 622.066 622.066 0 0 1-24-25 136.23 136.23 0 0 1-9.5-29c-.778-1.647-1.944-2.98-3.5-4-8.83-30.851-15.83-61.851-21-93-.667-6-.667-12 0-18a825.115 825.115 0 0 1 28.5-28 3062.23 3062.23 0 0 1 54.5-37A713.387 713.387 0 0 1 150.5 92a319.991 319.991 0 0 0 18-9 1119.262 1119.262 0 0 0 70-28l2-3c3.257-.75 5.924-2.416 8-5 7.921-1.431 15.254-.098 22 4 11.035 7.584 20.868 16.417 29.5 26.5a109.423 109.423 0 0 1 12 21c2.344 9.196 3.011 18.529 2 28a22.981 22.981 0 0 1-2 5c-2.167 1.5-4 3.333-5.5 5.5l-11 1a62.419 62.419 0 0 1-8 7.5c-3.986 1.544-7.653 1.044-11-1.5a535.13 535.13 0 0 1-29.5-1.5c-2.582 1.547-4.916 1.214-7-1a562.68 562.68 0 0 1-8.5-27.5c-8.848-2.971-17.681-3.137-26.5-.5a259.24 259.24 0 0 1-19.5 42c4.205.933 8.371.6 12.5-1 17.614 1.121 30.28 9.454 38 25 24.448-9.009 49.448-10.676 75-5a318.336 318.336 0 0 1 32.5 12.5c23.744 14.252 41.411 34.085 53 59.5a458.243 458.243 0 0 0 4 17c8.501-4.149 16.834-3.649 25 1.5 13.75 11.866 18.416 26.7 14 44.5-11.002 21.079-28.169 28.745-51.5 23-7.527 12.861-17.694 23.028-30.5 30.5a272.342 272.342 0 0 0 11 5.5 9.108 9.108 0 0 1 5-1zm-219-155c4.55 8.889 10.884 16.389 19 22.5-6.108 13.798-9.275 28.298-9.5 43.5a381.089 381.089 0 0 0-6.5-31c-4.812-3.65-8.312-8.317-10.5-14a71.798 71.798 0 0 0-9.5-10.5 20.64 20.64 0 0 0 6-2 121.67 121.67 0 0 1 11-8.5z" opacity=".977"/><path fill="#eee8e8" d="M297.5 117.5c1.129-2.128 1.296-4.461.5-7-.717.544-1.217 1.211-1.5 2-3.903 2.701-8.237 3.534-13 2.5-1.504-1.491-2.337-3.324-2.5-5.5-4.348-3.367-7.181-7.7-8.5-13-2.405-1.268-5.072-1.935-8-2-2.015-1.424-4.348-2.09-7-2a46.898 46.898 0 0 1-7-3 233.19 233.19 0 0 1-1-22c-5.711 8.694-12.377 15.694-20 21-3.187-1.306-6.52-1.306-10 0 .124.607.457.94 1 1 1.528.017 2.028.684 1.5 2a36.012 36.012 0 0 1-4.5 3.5c-5.593.569-10.926 1.735-16 3.5-3.819-.05-7.153 1.116-10 3.5 1.648 1.677 3.315 1.844 5 .5 9.803-.524 19.47.143 29 2-4.751 1.641-9.751 2.641-15 3-5.612.926-10.612 3.259-15 7-2.393.853-3.726 2.519-4 5a552.315 552.315 0 0 0-53 51.5c-10.829 7.78-22.829 12.947-36 15.5a244.21 244.21 0 0 0-11 2 95.553 95.553 0 0 1-22-1.5c-3.1-.942-5.434-2.776-7-5.5-1.715-3.275-.881-5.608 2.5-7a145.196 145.196 0 0 1 27.5-33 54.476 54.476 0 0 1 11-4c3.813-.438 7.146-1.771 10-4 5.338-2.78 11.005-4.78 17-6 5.065-1.086 9.399-3.42 13-7a93.069 93.069 0 0 1 9-3c3.278-1.977 6.611-3.977 10-6-3.517-.258-6.517 1.076-9 4-8.709 2.675-17.375 5.341-26 8-1.068.934-2.401 1.268-4 1-2.995-.206-5.662.46-8 2h-2c-4.891.51-9.558 1.51-14 3-2.842 1.499-5.842 1.833-9 1a512.029 512.029 0 0 1 52-31 77.856 77.856 0 0 0 13-6 2963.092 2963.092 0 0 0 47-18c2.652.09 4.985-.576 7-2 3.005-1.777 6.338-2.777 10-3 2.897-.629 5.564-1.629 8-3 4.948-1.828 9.614-4.328 14-7.5 5.782-2.07 11.449-1.737 17 1a241.81 241.81 0 0 1 30 22A138.26 138.26 0 0 1 302 97.5c3.085 8.948 3.252 17.948.5 27-1.223 1.114-2.556 1.281-4 .5-.935-2.381-1.268-4.881-1-7.5z"/><path fill="#9c9898" d="M227.5 67.5c-2.436 1.371-5.103 2.371-8 3 2.117-2.154 4.784-3.154 8-3z"/><path fill="#9b9797" d="M209.5 73.5c-2.015 1.424-4.348 2.09-7 2 2.015-1.424 4.348-2.09 7-2z"/><path fill="#8a8787" d="M229.5 88.5c-3.213-.31-6.213.023-9 1-.543-.06-.876-.393-1-1 3.48-1.306 6.813-1.306 10 0z"/><path fill="#837f7f" d="M257.5 92.5c2.652-.09 4.985.576 7 2-2.652.09-4.985-.576-7-2z"/><path fill="#949191" d="M264.5 94.5c2.928.065 5.595.732 8 2-2.995.206-5.662-.46-8-2z"/><path fill="#484646" d="M155.5 93.5a77.856 77.856 0 0 1-13 6c-1.453-1.325-1.119-2.158 1-2.5a82.031 82.031 0 0 1 12-3.5z" opacity=".984"/><path fill="#646262" d="M201.5 98.5c-.418.722-1.084 1.222-2 1.5l1 1c-1.399.595-2.732.428-4-.5-1.273.757-1.273 1.423 0 2-1.685 1.344-3.352 1.177-5-.5 2.847-2.384 6.181-3.55 10-3.5z"/><path fill="#373636" d="M225.5 104.5c.904.709 1.237 1.709 1 3h-16c5.249-.359 10.249-1.359 15-3z"/><path fill="#8d8989" d="M152.5 117.5l1-2c2.483-2.924 5.483-4.258 9-4a2566.227 2566.227 0 0 0-10 6z"/><path fill="#686666" d="M297.5 117.5c.284-1.915-.049-3.581-1-5 .283-.789.783-1.456 1.5-2 .796 2.539.629 4.872-.5 7z"/><path fill="#858282" d="M195.5 114.5c-.17 2.704-1.503 4.371-4 5 .274-2.481 1.607-4.147 4-5z" opacity=".992"/><path fill="#262525" d="M153.5 115.5l-1 2a93.069 93.069 0 0 0-9 3 76.898 76.898 0 0 0-11 4c-1.419-.951-3.085-1.284-5-1 8.625-2.659 17.291-5.325 26-8z" opacity=".993"/><path fill="#6f6c6c" d="M123.5 124.5c-2.405 1.268-5.072 1.935-8 2 2.338-1.54 5.005-2.206 8-2z"/><path fill="#7e7a7a" d="M143.5 120.5c-3.601 3.58-7.935 5.914-13 7 .282-1.278.949-2.278 2-3a76.898 76.898 0 0 1 11-4z"/><path fill="#353333" d="M113.5 126.5c-.111.617-.444 1.117-1 1.5a121.16 121.16 0 0 1-13 1.5c4.442-1.49 9.109-2.49 14-3z"/><path fill="#9c9797" d="M113.5 133.5c-2.854 2.229-6.187 3.562-10 4 .111-.617.444-1.117 1-1.5a140.721 140.721 0 0 0 9-2.5z"/><path fill="#ebe6e6" d="M155.5 181.5c-1.424 2.015-2.09 4.348-2 7-9.718 9.53-21.051 16.53-34 21a317.796 317.796 0 0 0-34-9c-3.249-4.357-2.249-7.023 3-8v-3h3c7.277-.93 14.61-1.264 22-1a52.3 52.3 0 0 0 14 .5 64.735 64.735 0 0 1 9-6 216.061 216.061 0 0 0 16-19 77.742 77.742 0 0 0 11-10 168.789 168.789 0 0 1 13-8.5c.908 1.29.741 2.623-.5 4-5.571 6.122-9.904 13.122-13 21-3.509 3.031-6.009 6.698-7.5 11z"/><path fill="#6e1715" d="M206.5 161.5a103.043 103.043 0 0 0-19 1c.111-.617.444-1.117 1-1.5 6.181-.819 12.181-.653 18 .5z" opacity=".999"/><path fill="#a8221e" d="M206.5 161.5c14.525 3.859 23.191 13.192 26 28 .463 2.982.796 5.982 1 9-.623 3.603-2.456 6.27-5.5 8a108.742 108.742 0 0 1-24.5.5 22.508 22.508 0 0 1-7-2 57.217 57.217 0 0 1-8.5-9.5c.019 5.911 1.519 11.411 4.5 16.5l-1 .5c-11.439-10.993-15.439-24.326-12-40-1.574-1.131-3.241-1.298-5-.5a83.084 83.084 0 0 1-8 7.5c-1.898.596-3.565.596-5 0 5.458-10.44 14.125-16.107 26-17a103.043 103.043 0 0 1 19-1z"/><path fill="#a09c9c" d="M271.5 176.5c-4.419 1.472-9.086 2.138-14 2 4.419-1.472 9.086-2.138 14-2z"/><path fill="#f1ebeb" d="M271.5 176.5c8.849-.326 17.516.007 26 1 3.446 1.187 7.113 1.854 11 2 15.548 3.129 29.548 9.629 42 19.5a230.038 230.038 0 0 1 24.5 26.5c14.593 23.225 18.926 48.225 13 75-6.106 16.608-15.939 30.608-29.5 42l-4 1a1115.833 1115.833 0 0 1-38-6c-2.405-1.268-5.072-1.935-8-2-2.549.113-4.882-.554-7-2-2.331-8.997-6.498-16.997-12.5-24-14.619-17.051-31.785-30.884-51.5-41.5a44.433 44.433 0 0 1-3-5.5c.073-1.527-.594-2.527-2-3a62.971 62.971 0 0 0-5.5-13 147.759 147.759 0 0 0-3.5-15.5c4.644-4.633 8.478-9.8 11.5-15.5a87.76 87.76 0 0 1 9.5 12.5c5.775.204 7.942-2.629 6.5-8.5-2.267-6.86-6.267-12.527-12-17a122.515 122.515 0 0 0-1.5-12c1.761-2.914 4.094-5.414 7-7.5a100.541 100.541 0 0 1 13-4.5c4.914.138 9.581-.528 14-2z"/><path fill="#999595" d="M297.5 177.5c3.958-.249 7.624.418 11 2-3.887-.146-7.554-.813-11-2z" opacity=".969"/><path fill="#eee8e8" d="M558.5 283.5c-1.617 2.48-1.95 5.146-1 8a16.332 16.332 0 0 0 2-4 192.666 192.666 0 0 1 7-17c-.09 2.652.576 4.985 2 7-.062 6.738 1.272 13.071 4 19 .805 17.893.138 35.893-2 54-1.846 6.738-2.846 13.738-3 21-2.585 7.631-3.585 15.631-3 24-.722.418-1.222 1.084-1.5 2a436.267 436.267 0 0 0-1.5 11v1c-1.842 3.659-2.842 7.659-3 12a27.13 27.13 0 0 1-2 10c-2.831 1.498-4.498 3.831-5 7-.343 1.725-1.343 2.225-3 1.5-4.223-4.555-7.223-9.722-9-15.5-.255-2.467-1.255-4.467-3-6l-3.5-7c-1.452-20.762.715-41.096 6.5-61a874.245 874.245 0 0 1 11-31c2.327-2.644 2.994-5.644 2-9a29.042 29.042 0 0 0-3 8 520.757 520.757 0 0 0-10 24 4784.818 4784.818 0 0 0-7.5 13 21.754 21.754 0 0 1-7.5 6c-2.317-1.742-3.817-4.076-4.5-7-1.89-7.582-1.724-15.082.5-22.5 4.831-9.499 9.664-18.999 14.5-28.5a81.525 81.525 0 0 0 2.5-16c.996-.086 1.829.248 2.5 1 .819-6.181.653-12.181-.5-18-.339-6.187-2.005-12.021-5-17.5-19.462-7.978-37.629-18.145-54.5-30.5-4.821-7.653-4.654-15.153.5-22.5a31.941 31.941 0 0 1 6-3.5c2.306.493 4.639.826 7 1a151.318 151.318 0 0 0 15 1.5c-.971-1.481-2.304-2.315-4-2.5a32.508 32.508 0 0 0-7-3c-1.187-2.475-3.187-3.475-6-3a13.116 13.116 0 0 0-1-7c-.607.124-.94.457-1 1a39.064 39.064 0 0 1-2 4.5 158.12 158.12 0 0 0-14 9.5c-5.81 2.26-11.143 5.26-16 9-3.413-1.369-4.413-3.702-3-7a74.048 74.048 0 0 1 7-7.5 123.954 123.954 0 0 1 27.5-15.5c28.62 17.955 53.454 40.122 74.5 66.5a190.187 190.187 0 0 1-5 39.5z"/><path fill="#601312" d="M161.5 179.5c1.435.596 3.102.596 5 0-1.701 1.923-3.701 2.257-6 1 .124-.607.457-.94 1-1z"/><path fill="#555353" d="M155.5 181.5c.09 2.652-.576 4.985-2 7-.09-2.652.576-4.985 2-7z"/><path fill="#aea9a9" d="M102.5 186.5l11 2c-7.39-.264-14.723.07-22 1v-1a244.21 244.21 0 0 1 11-2z"/><path fill="#4e4c4c" d="M489.5 184.5c.06-.543.393-.876 1-1a13.116 13.116 0 0 1 1 7l-2-6z"/><path fill="#6e6b6b" d="M491.5 190.5c2.813-.475 4.813.525 6 3-2.319-.492-4.319-1.492-6-3z"/><path fill="#514e4e" d="M504.5 196.5c1.696.185 3.029 1.019 4 2.5a151.318 151.318 0 0 1-15-1.5l-2-2c-.418-.722-1.084-1.222-2-1.5 2.053-.325 4.053.009 6 1l-1 1c2.688.392 5.355.892 8 1.5.916-.043 1.583-.376 2-1z"/><path fill="#991f1c" d="M159.5 193.5c1.25.077 2.083.744 2.5 2a277.797 277.797 0 0 0 3.5 23c-4.484-1.673-6.984-5.006-7.5-10-1.045-5.285-.545-10.285 1.5-15z"/><path fill="#470e0d" d="M232.5 189.5c1.982 2.873 2.315 5.873 1 9a104.618 104.618 0 0 0-1-9z"/><path fill="#969393" d="M486.5 196.5c1.419-.951 3.085-1.284 5-1l2 2a51.569 51.569 0 0 1-7-1z"/><path fill="#efe9e9" d="M147.5 262.5a369.28 369.28 0 0 1 1 31v2a27.641 27.641 0 0 1-3 8c-12.29-7.789-22.456-17.789-30.5-30-3.165-14.629-3.332-29.296-.5-44 17.934 3.934 28.934 14.934 33 33z"/><path fill="#0e0d0d" d="M317.5 241.5c6.06-.027 12.06.139 18 .5-1.236-1.085-2.569-1.918-4-2.5a47 47 0 0 0-8-4.5c5.102.189 10.102 1.189 15 3a262.41 262.41 0 0 1 24 13c14.115 9.287 13.115 12.121-3 8.5a261.254 261.254 0 0 0-45-17c.825-.886 1.825-1.219 3-1z"/><path fill="#666363" d="M331.5 239.5c1.431.582 2.764 1.415 4 2.5-5.94-.361-11.94-.527-18-.5l14-2z"/><path fill="#6c6a6a" d="M232.5 259.5c1.406.473 2.073 1.473 2 3-1.406-.473-2.073-1.473-2-3z"/><path fill="#a8221e" d="M434.5 285.5a96.873 96.873 0 0 1 1 16c-1.806 2.838-2.806 2.505-3-1a53.153 53.153 0 0 1-14.5 5c-4.849-.17-9.349-1.504-13.5-4-1.797-1.631-2.964-3.631-3.5-6a121.19 121.19 0 0 1 0-22 17.842 17.842 0 0 1 5.5-4.5c13.375-1.476 22.708 4.024 28 16.5z"/><path fill="#868282" d="M566.5 270.5c1.424 2.015 2.09 4.348 2 7-1.424-2.015-2.09-4.348-2-7z"/><path fill="#9f9c9c" d="M147.5 262.5c.79 1.109 1.29 2.442 1.5 4 .824 9.176.657 18.176-.5 27a369.28 369.28 0 0 0-1-31z"/><path fill="#787575" d="M539.5 270.5c1.153 5.819 1.319 11.819.5 18-.671-.752-1.504-1.086-2.5-1 1.792-5.446 2.458-11.113 2-17z"/><path fill="#9f9b9b" d="M568.5 277.5c2.249 6.021 3.582 12.355 4 19-2.728-5.929-4.062-12.262-4-19z"/><path fill="#e3dede" d="M49.5 297.5c-.09 2.652.576 4.985 2 7 1.874 13.461 6.208 25.961 13 37.5l-1 1.5c-14.038-9.744-22.205-23.077-24.5-40a100.245 100.245 0 0 1 0-20c1-1.333 2-1.333 3 0a139.754 139.754 0 0 0 7.5 14z"/><path fill="#777474" d="M558.5 283.5c-.268 1.599.066 2.932 1 4a16.332 16.332 0 0 1-2 4c-.95-2.854-.617-5.52 1-8z"/><path fill="#631412" d="M434.5 285.5c1.506 2.856 2.172 6.023 2 9.5-.004 2.361-.337 4.527-1 6.5a96.873 96.873 0 0 0-1-16z"/><path fill="#747070" d="M49.5 297.5c1.424 2.015 2.09 4.348 2 7-1.424-2.015-2.09-4.348-2-7z"/><path fill="#4d4b4b" d="M148.5 295.5v9c-1.291.237-2.291-.096-3-1a27.641 27.641 0 0 0 3-8z"/><path fill="#716e6e" d="M550.5 319.5c0-.667-.333-1-1-1a29.042 29.042 0 0 1 3-8c.994 3.356.327 6.356-2 9z"/><path fill="#efe9e9" d="M240.5 360.5c2.488 1.888 5.488 2.555 9 2 2.931 4.088 6.931 6.255 12 6.5a25.513 25.513 0 0 1 4 4.5 89.535 89.535 0 0 0-18 17.5 49.189 49.189 0 0 1-11 7.5c.848 1.491 2.181 2.158 4 2a39.113 39.113 0 0 0 5-1c2.652.09 4.985-.576 7-2a486.777 486.777 0 0 0 47-9c3.583-.507 6.917-1.507 10-3a92.429 92.429 0 0 1 23-4 249.09 249.09 0 0 1 18-2c21.68 7.927 40.513 20.261 56.5 37a354.091 354.091 0 0 0 15.5 20c.825.886 1.825 1.219 3 1-3.172 6.512-7.505 12.178-13 17l-2-9c-2.704-4.441-6.37-5.774-11-4a655.874 655.874 0 0 1-17-1c-.73-1.212-1.73-2.212-3-3a184.035 184.035 0 0 1 9-13.5l-1-.5a34.24 34.24 0 0 1-9 6.5 82.775 82.775 0 0 1-23 5.5c-5.569-.124-10.902.543-16 2-9.643-.408-18.977.592-28 3-5.551.027-10.884.694-16 2-4.471.589-8.471-.077-12-2 6.828-11.502 15.495-21.502 26-30 .543-.06.876-.393 1-1-5.885-.739-11.552-.072-17 2-10.014 1.837-19.681 5.004-29 9.5a55.784 55.784 0 0 0-16.5 13.5c-12.006-7.844-22.339-17.51-31-29a389.69 389.69 0 0 0-24-23 91.988 91.988 0 0 1-3-9c-.067-14.671-3.067-28.671-9-42a24.935 24.935 0 0 1-.5-7 18.453 18.453 0 0 1 6 .5 103.01 103.01 0 0 0 12.5 11.5c6.536 10.873 14.869 20.207 25 28a226.624 226.624 0 0 0 11 17 412.874 412.874 0 0 1 3-20c.671-.752 1.504-1.086 2.5-1z"/><path fill="#262525" d="M549.5 318.5c.667 0 1 .333 1 1a874.245 874.245 0 0 0-11 31c.997-2.828.997-5.495 0-8a520.757 520.757 0 0 1 10-24z"/><path fill="#777575" d="M308.5 335.5c2.928.065 5.595.732 8 2-2.995.206-5.662-.46-8-2z"/><path fill="#726f6f" d="M358.5 342.5c-1.038 2.019-2.372 2.353-4 1l4-1z"/><path fill="#787474" d="M83.5 357.5a4.934 4.934 0 0 0-3 .5c.837 1.011 1.17 2.178 1 3.5-1.431-1.28-2.098-2.947-2-5 1.599-.268 2.932.066 4 1z"/><path fill="#e7e2e2" d="M83.5 357.5a470.532 470.532 0 0 0 20.5 13 459.605 459.605 0 0 0 7.5 29l-1 2a44.888 44.888 0 0 1-10.5-9 363.85 363.85 0 0 1-18.5-31c.17-1.322-.163-2.489-1-3.5a4.934 4.934 0 0 1 3-.5z"/><path fill="#9f9b9b" d="M570.5 350.5c-.209 7.249-1.209 14.249-3 21 .154-7.262 1.154-14.262 3-21z"/><path fill="#949090" d="M240.5 360.5a68.688 68.688 0 0 1 9 2c-3.512.555-6.512-.112-9-2z"/><path fill="#eee8e8" d="M386.5 363.5v2h-2c-2.982.463-5.982.796-9 1 .381-1.431 1.381-2.264 3-2.5a32.462 32.462 0 0 1 8-.5z" opacity=".358"/><path fill="#656363" d="M386.5 363.5h4c-.683 1.676-2.017 2.343-4 2v-2z" opacity=".702"/><path fill="#595757" d="M384.5 365.5c-3.345 1.717-7.011 2.384-11 2 .342-.838 1.008-1.172 2-1 3.018-.204 6.018-.537 9-1z"/><path fill="#ede7e7" d="M466.5 409.5c-2.787.977-5.787 1.31-9 1-14.203.253-27.536-3.247-40-10.5a146.075 146.075 0 0 1-20.5-15.5 7246.061 7246.061 0 0 1-7.5-12.5l1-1a256.122 256.122 0 0 1 32 0 159.444 159.444 0 0 1 20 13 289.165 289.165 0 0 1 24 25.5z"/><path fill="#9e9a9a" d="M350.5 379.5a249.09 249.09 0 0 0-18 2c5.866-2.425 11.866-3.092 18-2z"/><path fill="#b5b1b1" d="M567.5 371.5c-.157 8.24-1.157 16.24-3 24-.585-8.369.415-16.369 3-24z"/><path fill="#767373" d="M309.5 385.5c-3.083 1.493-6.417 2.493-10 3 .111-.617.444-1.117 1-1.5a70.523 70.523 0 0 1 9-1.5z"/><path fill="#8f8c8c" d="M252.5 397.5c-2.015 1.424-4.348 2.09-7 2 2.015-1.424 4.348-2.09 7-2z"/><path fill="#888484" d="M564.5 395.5c.376 4.773-.624 9.107-3 13 .452-3.663.952-7.33 1.5-11 .278-.916.778-1.582 1.5-2z"/><path fill="#3f3d3d" d="M309.5 410.5c-.235-.597-.735-.93-1.5-1a39.137 39.137 0 0 1-14.5 2c5.448-2.072 11.115-2.739 17-2-.124.607-.457.94-1 1z"/><path fill="#8a8787" d="M466.5 409.5c.543.06.876.393 1 1-3.48 1.306-6.813 1.306-10 0 3.213.31 6.213-.023 9-1z"/><path fill="#a29f9f" d="M561.5 409.5c-.158 4.341-1.158 8.341-3 12 .158-4.341 1.158-8.341 3-12z" opacity=".992"/><path fill="#747171" d="M536.5 418.5c1.745 1.533 2.745 3.533 3 6-1.745-1.533-2.745-3.533-3-6z" opacity=".996"/><path fill="#656262" d="M479.5 434.5l4 2a25.879 25.879 0 0 1-10-1 9.86 9.86 0 0 1 6-1z"/><path fill="#ddd7d7" d="M515.5 439.5c-1.765.961-3.765 1.295-6 1a176.76 176.76 0 0 0-26-4l-4-2a162.565 162.565 0 0 1 30-.5 45.494 45.494 0 0 0 6 5.5z"/><path fill="#928e8e" d="M556.5 431.5a31.774 31.774 0 0 1-2.5 7c-.77-1.098-1.603-1.098-2.5 0 .502-3.169 2.169-5.502 5-7z" opacity=".898"/><path fill="#b1adad" d="M355.5 435.5c-5.116 1.306-10.449 1.973-16 2 5.098-1.457 10.431-2.124 16-2z"/><path fill="#696666" d="M311.5 440.5c-5.098 1.457-10.431 2.124-16 2 5.116-1.306 10.449-1.973 16-2z"/><path fill="#7b7878" d="M382.5 440.5c5.661.407 11.328.74 17 1-1.973.663-4.139.996-6.5 1-3.782.121-7.282-.546-10.5-2z"/><path fill="#8f8c8c" d="M515.5 439.5c1.987.664 3.654 1.831 5 3.5a44.016 44.016 0 0 1-11-2.5c2.235.295 4.235-.039 6-1z"/><path fill="#7b7777" d="M283.5 440.5c3.529 1.923 7.529 2.589 12 2-4.134.985-8.468 1.318-13 1-.237-1.291.096-2.291 1-3z"/><path fill="#777474" d="M410.5 445.5l2 9c-.06.543-.393.876-1 1a25.879 25.879 0 0 1-1-10z"/></svg>