<svg xmlns="http://www.w3.org/2000/svg" width="600" height="600" fill-rule="evenodd" clip-rule="evenodd" image-rendering="optimizeQuality" shape-rendering="geometricPrecision" text-rendering="geometricPrecision"><path fill="#f6f6f6" d="M243.5 31.5c8.673-.166 17.34 0 26 .5 25.759 14.346 42.592 35.18 50.5 62.5.667 8.333.667 16.667 0 25-3.488 9.185-9.988 14.019-19.5 14.5a71.916 71.916 0 0 0-9 7 545.449 545.449 0 0 0-55-3c-4.201-9.406-7.201-19.24-9-29.5a40.188 40.188 0 0 1-11.5-3 57.178 57.178 0 0 0-6.5 3c-3.983 10.8-8.65 21.3-14 31.5 19.115-1.608 33.782 5.559 44 21.5 45.752-12.654 87.752-5.154 126 22.5 13.688 11.36 24.855 24.86 33.5 40.5a222.246 222.246 0 0 1 5.5 20c19.155-1.65 32.322 6.35 39.5 24 8.631 43.059-8.869 63.393-52.5 61-4.399 6.904-9.732 13.071-16 18.5 16.994-.303 33.994-.303 51 0a643.455 643.455 0 0 1 33 11.5c9.407-22.243 24.907-38.91 46.5-50a246.432 246.432 0 0 1 8-19 94.056 94.056 0 0 0-.5-18c5.315-18.343-1.351-26.01-20-23a28.995 28.995 0 0 1-9 6.5 230.816 230.816 0 0 1-26-1c-8.23-5.606-13.063-13.439-14.5-23.5-2.959-14.911-3.792-29.911-2.5-45 12.069-14.226 26.402-25.726 43-34.5 5.664-1.159 10.998-.492 16 2a933.893 933.893 0 0 1 75.5 69.5 883.295 883.295 0 0 1 13 49 4090.921 4090.921 0 0 1 6 61 3538.73 3538.73 0 0 1 0 119 478.186 478.186 0 0 1-6.5 30 363.617 363.617 0 0 1-42 17.5 140.694 140.694 0 0 0-22 7 206.238 206.238 0 0 1-23 2 175.094 175.094 0 0 1-31 12 91.627 91.627 0 0 0-15 3 466.094 466.094 0 0 1-60 1c-32.84 15.642-67.507 22.142-104 19.5-29.512 1.729-58.178-2.105-86-11.5a59.043 59.043 0 0 0-9-5l-17-21c-16.548-6.855-31.382-16.355-44.5-28.5a1033.503 1033.503 0 0 1-60-106c-6.921-7.101-12.088-14.934-15.5-23.5A542.222 542.222 0 0 1 33 321.5a294.362 294.362 0 0 0-8-26 35.16 35.16 0 0 1-5-10 3013.934 3013.934 0 0 1-19-82 289.25 289.25 0 0 1 0-34c8.5-9.833 17.667-19 27.5-27.5a924.96 924.96 0 0 1 59-40 1183.71 1183.71 0 0 1 71-31l13-7a102.976 102.976 0 0 0 15.5-4.5A675.22 675.22 0 0 1 233.5 39c2.975-3.129 6.309-5.629 10-7.5zm-91 181c3.72 5.558 8.053 10.725 13 15.5a25.648 25.648 0 0 0-2.5 7.5 220.79 220.79 0 0 1-14.5-20.5c1.566-.608 2.9-1.442 4-2.5z" opacity=".839"/><path fill="#030303" d="M276.5 133.5a364.586 364.586 0 0 0-35-2 454.937 454.937 0 0 1-9-28c-2.646-1.753-5.646-2.753-9-3-6.514-1.665-12.847-1.165-19 1.5a887.835 887.835 0 0 0-11 25.5c-1.406.473-2.073 1.473-2 3l-7.5 15c-.749 1.135-.583 2.135.5 3a174.888 174.888 0 0 1 13.5-3c10.341.337 19.508 3.837 27.5 10.5 3.89 4.324 7.39 8.824 10.5 13.5a163.748 163.748 0 0 1 23.5-5 183.589 183.589 0 0 1 34-2h2c3.376 1.582 7.042 2.249 11 2 38.769 9.086 67.769 31.253 87 66.5a266.03 266.03 0 0 1 6.5 23.5c9.318-4.552 18.151-3.718 26.5 2.5 15.15 15.055 17.65 31.888 7.5 50.5-4.099 4.608-8.599 8.608-13.5 12a898.69 898.69 0 0 0-10 3c-7.83.531-15.83.698-24 .5-8.333 12.333-18.667 22.667-31 31 5.585 3.705 11.585 5.205 18 4.5a131.879 131.879 0 0 0 15-3c13.439-2.975 26.772-2.642 40 1 2.015 1.424 4.348 2.09 7 2a88.044 88.044 0 0 0 10 4c2.015 1.424 4.348 2.09 7 2 3.893 2.376 8.227 3.376 13 3 2.455-10.578 7.289-19.911 14.5-28a311.18 311.18 0 0 1 22.5-19.5c2.755-1.953 5.755-3.12 9-3.5.958-6.247 3.792-11.58 8.5-16a332.376 332.376 0 0 0 1-48 14.444 14.444 0 0 0-2.5-5.5 38.056 38.056 0 0 0-10-4.5c-6.526-1.077-13.193-.911-20 .5a54.53 54.53 0 0 0-6 6.5c-7.002 1.423-14.002 1.256-21-.5a29.544 29.544 0 0 0-6.5-9.5c-5.975-15.758-8.308-32.091-7-49a206.325 206.325 0 0 1 43-34 826.392 826.392 0 0 1 80 73l1 9c4.178 9.54 6.845 19.54 8 30a7.293 7.293 0 0 1 2 3c.789 5.687 1.622 11.353 2.5 17 .04 4.693.373 9.359 1 14-.138 4.914.528 9.581 2 14a1101.187 1101.187 0 0 1 3 92 1813.535 1813.535 0 0 0-2 42 199.784 199.784 0 0 1-5.5 26 150.166 150.166 0 0 1-23.5 11 86.704 86.704 0 0 0-14 5l-2 1c-3.662.223-6.995 1.223-10 3-5.35 1.67-10.683 3.336-16 5a297.853 297.853 0 0 0-23 2c-15.606 8.647-32.273 13.647-50 15a317.389 317.389 0 0 1-46.5-2c-1.385.014-2.551.348-3.5 1a198.867 198.867 0 0 1-21 8c-2.467.255-4.467 1.255-6 3-3.927.426-7.593 1.426-11 3-5.68.463-11.014 1.797-16 4a1428.548 1428.548 0 0 1-25 3c-20.677.139-41.344-.195-62-1-17.456-2.185-34.122-7.018-50-14.5-5.99-6.96-11.99-13.96-18-21-15.576-6.698-29.743-15.531-42.5-26.5a253.154 253.154 0 0 0-20-31 1470.77 1470.77 0 0 1-42.5-78c-6.926-6.436-12.092-14.102-15.5-23l-20-20-6-8a635.988 635.988 0 0 0-8-27 25.1 25.1 0 0 1-5-8 2026.369 2026.369 0 0 0-15-61A418.241 418.241 0 0 1 5.5 181a17.9 17.9 0 0 1 1.5-7.5L29.5 151a3026.27 3026.27 0 0 1 61-42 415.964 415.964 0 0 1 35-16.5 9.107 9.107 0 0 0 5-1c.886.825 1.219 1.825 1 3a658.713 658.713 0 0 0-41 25.5 345.244 345.244 0 0 0 47-9.5c1.834-.994 3.501-.994 5 0a130.322 130.322 0 0 1-28 12c-1.88-.271-3.213.396-4 2a58.46 58.46 0 0 0-19 7.5c-12.282 10.461-22.282 22.628-30 36.5.348 2.197 1.348 4.03 3 5.5 2.563 2.281 5.563 3.448 9 3.5l18 2h-3v3c-7.107 1.166-7.774 3.999-2 8.5a203.393 203.393 0 0 1 30 8c2 .667 4 .667 6 0 10.71-5.11 20.543-11.61 29.5-19.5 1.892-8.221 5.892-15.221 12-21a115.377 115.377 0 0 1 6-13c11.738-13.4 10.238-14.567-4.5-3.5a803.562 803.562 0 0 1-19.5 18.5c-4.833 7.5-11 13.667-18.5 18.5a377.529 377.529 0 0 0-26-1.5l1-2c14.572-2.425 27.572-8.258 39-17.5 14.565-17.399 30.565-33.233 48-47.5a2.428 2.428 0 0 0 2-.5c1.71-1.651 3.044-3.484 4-5.5 4.292-3.979 9.292-6.646 15-8a57.124 57.124 0 0 0 15-1c-.124-.607-.457-.94-1-1-1.495-.489-2.829-1.155-4-2-8.157-.83-16.49-1.33-25-1.5 1.937-.122 3.27-.955 4-2.5l8-2c3.281.08 6.281-.587 9-2 3.539-.824 4.872-2.824 4-6 3.655-1.086 7.322-1.086 11 0-.219-1.175.114-2.175 1-3a21.754 21.754 0 0 0 7.5-6 55.505 55.505 0 0 1 9.5-12c-.038 6.876.128 13.876.5 21 1.8 1.817 3.966 2.984 6.5 3.5a93.787 93.787 0 0 0 17 3.5c.564 5.89 3.23 10.557 8 14a29.825 29.825 0 0 1 2 5c5.702 1.7 10.536.367 14.5-4a302.902 302.902 0 0 0 0 13c2.776 1.64 4.776.973 6-2a68.757 68.757 0 0 0-1-22c-12.968-16.806-28.801-30.14-47.5-40-4.649-2.576-9.316-2.576-14 0a92.067 92.067 0 0 1-12 6.5 174.507 174.507 0 0 0-13 4.5c-3.216-.154-5.883.846-8 3a1190.903 1190.903 0 0 1-45 15.5 292.525 292.525 0 0 1-11 5.5c-1.527.073-2.527-.594-3-2 7.3-3.388 14.633-6.888 22-10.5a28.335 28.335 0 0 1 11-3 635.967 635.967 0 0 1 44-18 59.276 59.276 0 0 1 13-6.5 82.564 82.564 0 0 1 10-7.5 42.498 42.498 0 0 1 13 0c18.733 10.066 33.567 24.233 44.5 42.5 4.882 10.598 7.215 21.598 7 33-2.307 9.739-8.474 14.572-18.5 14.5a58.829 58.829 0 0 1-8 6.5c-3.71 1.258-7.377 1.258-11 0zm-124 79c-1.1 1.058-2.434 1.892-4 2.5a220.79 220.79 0 0 0 14.5 20.5 25.648 25.648 0 0 1 2.5-7.5c-4.947-4.775-9.28-9.942-13-15.5z"/><path fill="#a8a4a4" d="M255.5 49.5h-14c4.684-2.576 9.351-2.576 14 0z"/><path fill="#eee8e8" d="M241.5 49.5h14c18.699 9.86 34.532 23.194 47.5 40a68.757 68.757 0 0 1 1 22c-1.224 2.973-3.224 3.64-6 2a302.902 302.902 0 0 1 0-13c-3.964 4.367-8.798 5.7-14.5 4a29.825 29.825 0 0 0-2-5c-4.77-3.443-7.436-8.11-8-14a93.787 93.787 0 0 1-17-3.5c-2.534-.516-4.7-1.683-6.5-3.5a364.126 364.126 0 0 1-.5-21 55.505 55.505 0 0 0-9.5 12 21.754 21.754 0 0 1-7.5 6c-.886.825-1.219 1.825-1 3-3.678-1.086-7.345-1.086-11 0 .872 3.176-.461 5.176-4 6-3.329-.285-6.329.382-9 2l-8 2c-3.311.41-6.311 1.576-9 3.5 9.994.5 19.994.666 30 .5 1.171.845 2.505 1.511 4 2l-14 2c-5.708 1.354-10.708 4.021-15 8-2.886 1.096-4.886 3.096-6 6-17.435 14.267-33.435 30.101-48 47.5-11.428 9.242-24.428 15.075-39 17.5a143.764 143.764 0 0 1-29 2c-3.437-.052-6.437-1.219-9-3.5-1.652-1.47-2.652-3.303-3-5.5 7.718-13.872 17.718-26.039 30-36.5a58.46 58.46 0 0 1 19-7.5c1.653-.16 2.986-.826 4-2a130.322 130.322 0 0 0 28-12 124.528 124.528 0 0 0 16-7c1.333-.667 1.333-1.333 0-2a192.486 192.486 0 0 1-21 9 345.244 345.244 0 0 1-47 9.5 658.713 658.713 0 0 1 41-25.5 47.105 47.105 0 0 0 10-5c3.997-1.103 7.664-2.77 11-5a292.525 292.525 0 0 0 11-5.5 1190.903 1190.903 0 0 0 45-15.5c2.897-.629 5.564-1.629 8-3a174.507 174.507 0 0 1 13-4.5 92.067 92.067 0 0 0 12-6.5z"/><path fill="#817f7f" d="M216.5 60.5c-2.436 1.371-5.103 2.371-8 3 2.117-2.154 4.784-3.154 8-3z"/><path fill="#6d6b6b" d="M216.5 84.5c-2.719 1.413-5.719 2.08-9 2 2.671-1.618 5.671-2.285 9-2z"/><path fill="#515050" d="M149.5 82.5c.473 1.406 1.473 2.073 3 2-3.336 2.23-7.003 3.897-11 5-1.177-2.284-2.844-2.618-5-1 3.881-2.75 8.215-4.75 13-6z"/><path fill="#6a6868" d="M199.5 88.5c-.73 1.545-2.063 2.378-4 2.5 8.51.17 16.843.67 25 1.5-10.006.166-20.006 0-30-.5 2.689-1.924 5.689-3.09 9-3.5z"/><path fill="#282727" d="M141.5 89.5a47.105 47.105 0 0 1-10 5c.219-1.175-.114-2.175-1-3a9.107 9.107 0 0 1-5 1 53.762 53.762 0 0 1 11-4c2.156-1.618 3.823-1.284 5 1z"/><path fill="#878383" d="M224.5 94.5c.543.06.876.393 1 1a57.124 57.124 0 0 1-15 1l14-2z"/><path fill="#9b9b9b" d="M223.5 100.5c3.354.247 6.354 1.247 9 3-3.354-.247-6.354-1.247-9-3z"/><path fill="#484646" d="M142.5 110.5c-1.499-.994-3.166-.994-5 0a192.486 192.486 0 0 0 21-9c1.333.667 1.333 1.333 0 2a124.528 124.528 0 0 1-16 7z"/><path fill="#625f5f" d="M195.5 104.5c-.956 2.016-2.29 3.849-4 5.5a2.428 2.428 0 0 1-2 .5c1.114-2.904 3.114-4.904 6-6z"/><path fill="#797676" d="M114.5 122.5c-1.014 1.174-2.347 1.84-4 2 .787-1.604 2.12-2.271 4-2z"/><path fill="#7f7f7f" d="M193.5 127.5c.073 1.527-.594 2.527-2 3-.073-1.527.594-2.527 2-3z"/><path fill="#bababa" d="M241.5 131.5c11.851.114 23.518.781 35 2-11.881.394-23.548-.273-35-2z"/><path fill="#ebe5e5" d="M91.5 179.5a178.676 178.676 0 0 0 10-2c8.736.204 17.403.704 26 1.5 7.5-4.833 13.667-11 18.5-18.5a803.562 803.562 0 0 0 19.5-18.5c14.738-11.067 16.238-9.9 4.5 3.5a115.377 115.377 0 0 0-6 13c-6.108 5.779-10.108 12.779-12 21-8.957 7.89-18.79 14.39-29.5 19.5-2 .667-4 .667-6 0a203.393 203.393 0 0 0-30-8c-5.774-4.501-5.107-7.334 2-8.5v-3h3z"/><path fill="#a8221e" d="M177.5 154.5a50.881 50.881 0 0 0 7-1c1.53-.14 2.53-.807 3-2 23.72-4.43 38.887 4.904 45.5 28 1.347 6.098.18 11.598-3.5 16.5-11.101 2.265-22.101 1.931-33-1a57.217 57.217 0 0 1-8.5-9.5c.232 5.816 1.732 11.316 4.5 16.5l-1 .5c-11.425-10.954-15.425-24.287-12-40-1.574-1.131-3.241-1.298-5-.5a51.057 51.057 0 0 0-9 8c-1.525 1.009-3.192 1.509-5 1.5 2.631-8.631 8.298-14.298 17-17z"/><path fill="#761b17" d="M187.5 151.5c-.47 1.193-1.47 1.86-3 2-2.318.497-4.652.83-7 1 2.952-1.91 6.286-2.91 10-3z"/><path fill="#484848" d="M293.5 162.5a183.589 183.589 0 0 0-34 2c2.311-1.568 4.978-2.402 8-2.5 8.843-.824 17.51-.657 26 .5z"/><path fill="#656565" d="M295.5 162.5c3.887.146 7.554.813 11 2-3.958.249-7.624-.418-11-2z"/><path fill="#858181" d="M294.5 166.5a245.064 245.064 0 0 0-38 2c2.822-1.007 5.822-1.84 9-2.5 9.842-.825 19.509-.658 29 .5z"/><path fill="#f1ebeb" d="M294.5 166.5a449.988 449.988 0 0 0 17 3c.473 1.406 1.473 2.073 3 2 15.075 3.371 28.408 10.204 40 20.5 11.117 10.772 20.284 22.939 27.5 36.5a56.525 56.525 0 0 0 3.5 10c-.09 2.652.576 4.985 2 7 6.141 21.169 3.974 41.503-6.5 61a115.984 115.984 0 0 1-23.5 27.5c-1.249.74-2.249.573-3-.5-4.769-1.389-9.769-2.056-15-2a163.883 163.883 0 0 1-38-8 51.347 51.347 0 0 0-5.5-14c-15.605-21.938-35.272-39.272-59-52a113.368 113.368 0 0 1-9-18 1090.61 1090.61 0 0 0-4.5-18.5 115.163 115.163 0 0 0 10-14.5c.617-.111 1.117-.444 1.5-1 .377 1.442 1.21 2.442 2.5 3 2.525 2.375 4.525 5.209 6 8.5 6.5 1.5 9-1 7.5-7.5-2.267-6.86-6.267-12.527-12-17a122.515 122.515 0 0 0-1.5-12c4.511-6.762 10.844-10.762 19-12a245.064 245.064 0 0 1 38-2z"/><path fill="#eee8e8" d="M562.5 255.5c-1.395 4.091-2.062 8.424-2 13-1.608 4.113-2.441 8.446-2.5 13 1.18-3.021 2.346-6.021 3.5-9a55.666 55.666 0 0 0 4-10c.617-.111 1.117-.444 1.5-1 .278.916.778 1.582 1.5 2-.268 1.599.066 2.932 1 4 .198 6.347 1.531 12.347 4 18v1a2289.455 2289.455 0 0 1-2 45 77.1 77.1 0 0 1-1 13 246.139 246.139 0 0 0-2 19v3c-1.844 4.362-2.844 9.029-3 14a115.38 115.38 0 0 0-2 13c-1.424 2.015-2.09 4.348-2 7v4c-.801 1.542-1.134 3.208-1 5-1.424 2.015-2.09 4.348-2 7-.934 1.068-1.268 2.401-1 4-.655 3.313-2.322 5.98-5 8-.366 1.195-1.199 1.861-2.5 2-1.944-.939-3.611-2.273-5-4a121.005 121.005 0 0 1-7.5-17c.073-1.527-.594-2.527-2-3-2.821-8.706-3.654-17.706-2.5-27a531.88 531.88 0 0 1 3-25 115.895 115.895 0 0 0 5.5-22c5.996-9.509 9.83-19.842 11.5-31-4.262 9.95-8.428 19.95-12.5 30a4784.818 4784.818 0 0 0-7.5 13 39.591 39.591 0 0 1-8 7c-2.425-.761-3.758-2.428-4-5-2.952-10.762-1.952-21.096 3-31 6.229-9.771 10.729-20.104 13.5-31 .819-2.805 1.319-5.805 1.5-9l1 1c.82-6.514.653-12.847-.5-19a38.887 38.887 0 0 0-2.5-12c-4.204-3.803-9.038-6.469-14.5-8-.473-1.406-1.473-2.073-3-2-14.918-6.095-28.418-14.428-40.5-25-.21-1.558-.71-2.891-1.5-4a77.1 77.1 0 0 1 1-13c2.45-3.785 5.784-6.452 10-8a106.385 106.385 0 0 1 17 3l1-1a19.221 19.221 0 0 0-5-3 29.068 29.068 0 0 1-5-4.5 8.43 8.43 0 0 0-4-.5c.295-2.235-.039-4.235-1-6-1.552 1.535-2.885 3.369-4 5.5a214.211 214.211 0 0 1-26 15.5c-1.76 3.426-3.926 3.759-6.5 1-.706-2.471-.373-4.805 1-7 10.298-9.383 21.798-16.55 34.5-21.5 27.153 18.499 51.319 40.332 72.5 65.5.798 7.746.631 15.413-.5 23z"/><path fill="#797575" d="M311.5 169.5c1.527-.073 2.527.594 3 2-1.527.073-2.527-.594-3-2z"/><path fill="#a29e9e" d="M102.5 175.5l-1 2a178.676 178.676 0 0 1-10 2l-18-2c9.76.311 19.427-.355 29-2z"/><path fill="#a7a2a2" d="M491.5 173.5c.961 1.765 1.295 3.765 1 6a8.43 8.43 0 0 1 4 .5 29.068 29.068 0 0 0 5 4.5c-2.611-.146-4.611-1.312-6-3.5a8.43 8.43 0 0 0-4-.5v-7z"/><path fill="#9a1f1c" d="M158.5 183.5c.996-.086 1.829.248 2.5 1a506.082 506.082 0 0 1 4.5 24c-3.543-.372-5.71-2.372-6.5-6-1.694-6.344-1.86-12.678-.5-19z"/><path fill="#777474" d="M478.5 193.5a77.1 77.1 0 0 0-1 13c-.66-1.464-.993-3.131-1-5-.118-2.986.548-5.652 2-8z"/><path fill="#f3f3f3" d="M168.5 242.5c-1.424 2.015-2.09 4.348-2 7a85.084 85.084 0 0 0 0 26l-1 3a3.647 3.647 0 0 1-1.5-1c-.32-3.714-.82-7.381-1.5-11 .206-2.995-.46-5.662-2-8a284.223 284.223 0 0 0-3.5-19 50.92 50.92 0 0 1-12-17 134.072 134.072 0 0 1-9.5-10c5.887-1.711 10.887-4.878 15-9.5 2.092-.851 4.092-1.518 6-2a122.583 122.583 0 0 0 4.5 9.5c4.18 4.845 8.347 9.678 12.5 14.5a138.664 138.664 0 0 0-5 17.5zm-16-30c-1.1 1.058-2.434 1.892-4 2.5a220.79 220.79 0 0 0 14.5 20.5 25.648 25.648 0 0 1 2.5-7.5c-4.947-4.775-9.28-9.942-13-15.5z" opacity=".897"/><path fill="#999696" d="M237.5 208.5c-1.29-.558-2.123-1.558-2.5-3-.383.556-.883.889-1.5 1-.03-.997.47-1.664 1.5-2 1.595.856 2.428 2.189 2.5 4z"/><path fill="#efe9e9" d="M148.5 263.5c.205 8.367-.129 16.7-1 25v2l-2 3c-14.469-7.801-25.136-19.134-32-34v-35c-.575-3.071.591-5.071 3.5-6 20.364 8.053 30.864 23.053 31.5 45z"/><path fill="#646262" d="M327.5 224.5c-2.198-.091-2.531.575-1 2-1.495.085-2.495-.581-3-2 1.458-1.282 2.792-1.282 4 0z"/><path fill="#0e0e0e" d="M327.5 224.5c16.306 5.109 31.139 13.109 44.5 24 .483.948.649 1.948.5 3a37.118 37.118 0 0 1-12-1.5 172.21 172.21 0 0 0-30-12.5c-5.042-2.098-10.376-3.598-16-4.5.556-.383.889-.883 1-1.5h1a85.178 85.178 0 0 1 17.5 1c1.515-1.425 1.015-2.425-1.5-3a409.027 409.027 0 0 1-6-3c-1.531-1.425-1.198-2.091 1-2z"/><path fill="#504e4e" d="M332.5 229.5c2.515.575 3.015 1.575 1.5 3a85.178 85.178 0 0 0-17.5-1l16-2z"/><path fill="#928f8f" d="M315.5 231.5c-.111.617-.444 1.117-1 1.5 5.624.902 10.958 2.402 16 4.5a380.684 380.684 0 0 0-17-3c-.215-1.679.452-2.679 2-3z"/><path fill="#787575" d="M519.5 235.5c1.527-.073 2.527.594 3 2-1.527.073-2.527-.594-3-2z"/><path fill="#a5a1a1" d="M113.5 224.5v35c-1.493-5.592-2.159-11.426-2-17.5-.159-6.074.507-11.908 2-17.5z"/><path fill="#979393" d="M385.5 238.5c1.424 2.015 2.09 4.348 2 7-1.424-2.015-2.09-4.348-2-7z"/><path fill="#b4b4b4" d="M508.5 242.5a152.29 152.29 0 0 0-19 1.5c-1.941 2.454-4.275 4.287-7 5.5a54.53 54.53 0 0 1 6-6.5c6.807-1.411 13.474-1.577 20-.5z"/><path fill="#676767" d="M168.5 242.5c.09 2.652-.576 4.985-2 7-.09-2.652.576-4.985 2-7z"/><path fill="#a7221e" d="M435.5 292.5a89.247 89.247 0 0 1-4-2c-.916.043-1.583.376-2 1-9.884 5.952-19.051 4.952-27.5-3a84.562 84.562 0 0 1-1-25 17.842 17.842 0 0 1 5.5-4.5c11.998-1.349 21.165 3.151 27.5 13.5 2.568 6.544 3.068 13.211 1.5 20z"/><path fill="#6a6767" d="M568.5 263.5c-.722-.418-1.222-1.084-1.5-2-.383.556-.883.889-1.5 1 1.814-4.143 2.814-3.81 3 1z"/><path fill="#828282" d="M160.5 258.5c1.54 2.338 2.206 5.005 2 8-1.268-2.405-1.935-5.072-2-8z"/><path fill="#878383" d="M562.5 255.5c.062 4.576-.605 8.909-2 13-.062-4.576.605-8.909 2-13z"/><path fill="#3d3b3b" d="M539.5 257.5c1.153 6.153 1.32 12.486.5 19l-1-1c-.181 3.195-.681 6.195-1.5 9l2-27z"/><path fill="#3a3939" d="M560.5 268.5c-.268 1.599.066 2.932 1 4-1.154 2.979-2.32 5.979-3.5 9 .059-4.554.892-8.887 2.5-13z"/><path fill="#666464" d="M569.5 267.5c1.951 5.745 3.285 11.745 4 18-2.469-5.653-3.802-11.653-4-18z"/><path fill="#e3dddd" d="M39.5 271.5a226.78 226.78 0 0 1 10.5 18c1.897 14.923 6.564 28.923 14 42 .667 1 .667 2 0 3a113.031 113.031 0 0 1-13-11c-11.078-15.652-14.911-32.986-11.5-52z"/><path fill="#5a5858" d="M148.5 263.5c1.155 7.155 1.322 14.488.5 22-.232 1.237-.732 2.237-1.5 3 .871-8.3 1.205-16.633 1-25z"/><path fill="#54100f" d="M429.5 291.5c.417-.624 1.084-.957 2-1 1.367.725 2.7 1.392 4 2-.235.597-.735.93-1.5 1-1.3-1.207-2.8-1.874-4.5-2z"/><path fill="#706e6e" d="M147.5 290.5c.262 1.478-.071 2.811-1 4-.607-.124-.94-.457-1-1l2-3z"/><path fill="#818181" d="M584.5 288.5c1.144 4.464 1.81 9.13 2 14h-1c-.627-4.641-.96-9.307-1-14z"/><path fill="#605e5e" d="M573.5 286.5a167.586 167.586 0 0 1-2 45 2289.455 2289.455 0 0 0 2-45z"/><path fill="#908d8d" d="M185.5 315.5c-1.644.214-3.144-.12-4.5-1a24.935 24.935 0 0 0-.5 7c-.973-2.448-1.306-5.115-1-8 2.398-.241 4.398.426 6 2z"/><path fill="#eee8e8" d="M185.5 315.5c9.015 6.517 16.515 14.517 22.5 24a169.323 169.323 0 0 0 16 15 110.707 110.707 0 0 0 10.5 17c1.337-7.038 2.67-14.038 4-21 1.208.734 2.541 1.067 4 1 2.131.814 4.464 1.314 7 1.5 3.126 3.803 7.126 5.803 12 6a25.513 25.513 0 0 1 4 4.5c-6.78 4.946-12.78 10.779-18 17.5a2230.316 2230.316 0 0 0-11 8.5l3.5 1a118.089 118.089 0 0 1 24.5-5c4.914.138 9.581-.528 14-2a184.323 184.323 0 0 1 26-6c3.583-.507 6.917-1.507 10-3a661.055 661.055 0 0 1 32.5-6c23.594 7.96 43.928 20.96 61 39a157.947 157.947 0 0 0 14.5 19c.825.886 1.825 1.219 3 1a4.934 4.934 0 0 1-.5 3 109.45 109.45 0 0 1-13.5 15 156.172 156.172 0 0 0-.5-10 18.778 18.778 0 0 0-5.5-4.5c-6.141 1.341-12.474 1.674-19 1-2.534-.516-4.7-1.683-6.5-3.5 1.51-3.341 3.343-6.674 5.5-10 2.249-1.831 3.415-4.164 3.5-7a31.447 31.447 0 0 0-4.5 5c-5.846 3.563-12.179 6.063-19 7.5a202.237 202.237 0 0 1-41 4.5l-12 1.5c-.916.278-1.582.778-2 1.5a254.94 254.94 0 0 1-28 2 4.934 4.934 0 0 1 .5-3l11-15a371.475 371.475 0 0 1 16.5-16c-15.878 1.214-31.212 5.047-46 11.5a90.04 90.04 0 0 0-15 12.5c-.865 1.083-1.865 1.249-3 .5-12.46-8.793-23.293-19.293-32.5-31.5a340.272 340.272 0 0 0-22.5-21.5 715.299 715.299 0 0 0-4.5-33.5 150.58 150.58 0 0 0-6.5-16c-.163-2.357.003-4.69.5-7 1.356.88 2.856 1.214 4.5 1z"/><path fill="#595959" d="M585.5 302.5h1c.498 4.652.831 9.319 1 14-1.472-4.419-2.138-9.086-2-14z"/><path fill="#2c2b2b" d="M541.5 332.5c0-.667-.333-1-1-1 4.072-10.05 8.238-20.05 12.5-30-1.67 11.158-5.504 21.491-11.5 31z"/><path fill="#a4a4a4" d="M420.5 319.5c-2.751 2.475-6.084 3.475-10 3a898.69 898.69 0 0 1 10-3z"/><path fill="#5d5b5b" d="M339.5 331.5c5.231-.056 10.231.611 15 2-5.25.198-10.25-.469-15-2z"/><path fill="#e5dfdf" d="M79.5 346.5a4.934 4.934 0 0 1 3 .5 172.363 172.363 0 0 0 21 13.5 1051.244 1051.244 0 0 1 8 31c-3.844-1.652-7.344-3.985-10.5-7l-18-28a59.44 59.44 0 0 1-3.5-10z"/><path fill="#696666" d="M238.5 350.5c1.462-.971 2.795-.638 4 1-1.459.067-2.792-.266-4-1z"/><path fill="#595757" d="M388.5 355.5a131.879 131.879 0 0 1-15 3c.111-.617.444-1.117 1-1.5a66.755 66.755 0 0 1 14-1.5z"/><path fill="#949393" d="M428.5 356.5c2.652-.09 4.985.576 7 2-2.652.09-4.985-.576-7-2z"/><path fill="#474646" d="M570.5 344.5a145.053 145.053 0 0 1-.5 17c-.278.916-.778 1.582-1.5 2 .436-6.5 1.102-12.834 2-19z"/><path fill="#ede7e7" d="M466.5 399.5c-5.149.56-10.482.56-16 0-7.256.307-14.256-.86-21-3.5a175.128 175.128 0 0 1-32.5-21.5c-3.013-4.355-5.18-9.022-6.5-14a237.543 237.543 0 0 1 35 1.5c15.712 10.21 29.379 22.71 41 37.5z"/><path fill="#9a9a9a" d="M445.5 362.5c2.652-.09 4.985.576 7 2-2.652.09-4.985-.576-7-2z"/><path fill="#7b7878" d="M568.5 366.5c-.27 4.95-1.27 9.617-3 14 .156-4.971 1.156-9.638 3-14z"/><path fill="#7c7979" d="M314.5 374.5c-3.083 1.493-6.417 2.493-10 3 .111-.617.444-1.117 1-1.5a70.523 70.523 0 0 1 9-1.5z"/><path fill="#a9a5a5" d="M278.5 383.5c-4.419 1.472-9.086 2.138-14 2 4.419-1.472 9.086-2.138 14-2z"/><path fill="#9a9696" d="M450.5 399.5c5.518.56 10.851.56 16 0 2.125.868 2.291 1.868.5 3a211.291 211.291 0 0 1-16.5-3z"/><path fill="#9b9797" d="M563.5 393.5v4l-2 3c-.09-2.652.576-4.985 2-7z"/><path fill="#4f4e4e" d="M563.5 397.5c.09 2.652-.576 4.985-2 7v-4l2-3z"/><path fill="#747171" d="M535.5 406.5c1.406.473 2.073 1.473 2 3-1.406-.473-2.073-1.473-2-3z"/><path fill="#636060" d="M385.5 418.5c.172-.992-.162-1.658-1-2a31.447 31.447 0 0 1 4.5-5c-.085 2.836-1.251 5.169-3.5 7z"/><path fill="#5c5a5a" d="M560.5 409.5c.09 2.652-.576 4.985-2 7-.09-2.652.576-4.985 2-7z"/><path fill="#272626" d="M478.5 424.5v2c-26.667-.667-26.667-1.333 0-2z"/><path fill="#d2cdcd" d="M478.5 426.5v-2a178.284 178.284 0 0 1 31-.5l11 9a128.352 128.352 0 0 1-19-4 269.965 269.965 0 0 0-23-2.5z"/><path fill="#393838" d="M557.5 420.5v8h-5c2.678-2.02 4.345-4.687 5-8z"/><path fill="#5a5757" d="M324.5 428.5c-4.383 1.73-9.05 2.73-14 3 .418-.722 1.084-1.222 2-1.5l12-1.5z"/><path fill="#848484" d="M590.5 408.5c.167 12.005 0 24.005-.5 36-.191 2.208-.691 4.208-1.5 6a1813.535 1813.535 0 0 1 2-42z"/><path fill="#a3a3a3" d="M559.5 487.5c-4.13 2.824-8.797 4.491-14 5a86.704 86.704 0 0 1 14-5z"/><path fill="#9a9a9a" d="M543.5 493.5c-3.005 1.777-6.338 2.777-10 3 3.005-1.777 6.338-2.777 10-3z"/><path fill="#878787" d="M517.5 501.5c-7.423 1.755-15.089 2.421-23 2a297.853 297.853 0 0 1 23-2z"/><path fill="#c7c7c7" d="M394.5 517.5c.949-.652 2.115-.986 3.5-1a317.389 317.389 0 0 0 46.5 2c-16.555 1.437-33.221 1.103-50-1z"/><path fill="#a2a2a2" d="M373.5 525.5c-1.533 1.745-3.533 2.745-6 3 1.533-1.745 3.533-2.745 6-3z"/><path fill="#818181" d="M356.5 531.5c-5.064 1.952-10.397 3.285-16 4 4.986-2.203 10.32-3.537 16-4z"/><path fill="#868686" d="M253.5 537.5c20.656.805 41.323 1.139 62 1-7.993.666-16.16 1-24.5 1-12.701.158-25.201-.509-37.5-2z"/></svg>